<svg aria-hidden="true" style="position:absolute;width:0;height:0;overflow:hidden" xmlns="http://www.w3.org/2000/svg"><defs><symbol id="icon-linkedin" viewBox="0 0 32 32"><path d="M19.515 11.952c-.678 0-1.18.171-1.573.387-.063-.224-.27-.388-.514-.339h-2.984c-.295-.049-.534.19-.443.5v11c-.091.28.148.52.443.5h2.984c.295.02.534-.22.534-.515l-.001-6.648c-.001-.003-.012-.321.189-.54.161-.174.438-.263.821-.263.638 0 .922.261 1.028.845v6.606c-.105.295.134.535.429.515h3.145c.295.02.534-.22.428-.515v-6.828c.105-3.472-2.368-4.705-4.486-4.705zM23.038 23h-2.076v-6.121c0-1.181-.763-1.913-1.99-1.913-.694 0-1.234.204-1.606.606-.517.56-.477 1.27-.366 1.428v6h-2.022v-9.98h1.916v.336a.532.532 0 0 0 .86.423l.14-.108c.405-.319.824-.65 1.622-.65.826 0 3.523.263 3.523 3.637V23zM11 6.966c-1.122 0-2.034.912-2.034 2.034s.912 2.034 2.034 2.034 2.034-.912 2.034-2.034S12.122 6.966 11 6.966zm0 3c-.532 0-.966-.434-.966-.966s.434-.966.966-.966.966.434.966.966-.434.966-.966.966zm1.428 1.985H9.46c-.295 0-.534.239-.46.549v11c-.074.28.165.52.46.5h2.968c.295.02.534-.22.534-.515v-11a.534.534 0 0 0-.534-.534zM12 23H9.994v-9.98H12V23zM16-.034C7.158-.034-.034 7.158-.034 16S7.158 32.034 16 32.034 32.034 24.842 32.034 16 24.842-.034 16-.034zm0 31C7.748 30.966 1.034 24.252 1.034 16S7.748 1.034 16 1.034 30.966 7.748 30.966 16 24.252 30.966 16 30.966z"/></symbol><symbol id="icon-map-pin" viewBox="0 0 24 32"><path d="M12 0C5.383 0 0 5.394 0 12.022c0 9.927 11.201 19.459 11.678 19.86a.497.497 0 0 0 .64.004C12.795 31.492 24 22.124 24 12.022 24 5.394 18.617 0 12 0zm.002 30.838C10.161 29.193 1 20.579 1 12.022 1 5.944 5.935 1 12 1s11 4.944 11 11.022c0 8.702-9.152 17.193-10.998 18.816zM12 6c-3.309 0-6 2.691-6 6s2.691 6 6 6 6-2.691 6-6-2.691-6-6-6zm0 11c-2.757 0-5-2.243-5-5s2.243-5 5-5 5 2.243 5 5-2.243 5-5 5z"/></symbol><symbol id="icon-global" viewBox="0 0 32 32"><path d="M.034 16.668C.388 25.179 7.403 32 16 32s15.612-6.821 15.966-15.332A.493.493 0 0 0 32 16.5c0-.036-.013-.067-.02-.1.003-.134.02-.265.02-.4 0-8.822-7.178-16-16-16S0 7.178 0 16c0 .135.017.266.02.4-.007.033-.02.064-.02.1 0 .06.015.115.034.168zm24.887 6.074a21.921 21.921 0 0 0-4.215-1.271c.158-1.453.251-2.962.28-4.47h4.98c-.091 2.054-.456 3.993-1.045 5.741zM26.965 17h3.984a14.885 14.885 0 0 1-2.663 7.579 17.158 17.158 0 0 0-2.457-1.44c.645-1.869 1.042-3.943 1.136-6.139zm-14.576 5.286C13.567 22.102 14.776 22 16 22s2.433.102 3.61.286C18.916 27.621 17.4 31 16 31s-2.916-3.379-3.611-8.714zm1.519 8.378c-2.751-.882-5.078-3.471-6.482-6.984a20.873 20.873 0 0 1 3.99-1.217c.459 3.496 1.298 6.542 2.492 8.201zm-1.634-19.955c1.217.188 2.465.291 3.726.291s2.509-.103 3.726-.291c.172 1.62.274 3.388.274 5.291h-8c0-1.903.102-3.671.274-5.291zM19.985 17a49.022 49.022 0 0 1-.26 4.291C18.509 21.103 17.262 21 16 21s-2.509.103-3.726.291a48.668 48.668 0 0 1-.26-4.291h7.971zm.6 5.463c1.404.282 2.743.692 3.99 1.217-1.404 3.513-3.731 6.102-6.482 6.984 1.193-1.659 2.032-4.705 2.492-8.201zM21 16c0-1.836-.102-3.696-.294-5.47 1.48-.292 2.896-.72 4.215-1.271C25.605 11.288 26 13.574 26 16h-5zm-.415-6.463c-.46-3.496-1.298-6.543-2.493-8.201 2.751.882 5.078 3.471 6.482 6.984a20.792 20.792 0 0 1-3.989 1.217zm-.974.177C18.433 9.898 17.224 10 16 10s-2.433-.102-3.611-.286C13.084 4.379 14.6 1 16 1s2.916 3.379 3.611 8.714zm-8.196-.177a20.895 20.895 0 0 1-3.99-1.217c1.404-3.513 3.731-6.102 6.482-6.984-1.193 1.659-2.032 4.705-2.492 8.201zm-.121.993A51.315 51.315 0 0 0 11 16H6c0-2.426.395-4.712 1.079-6.742 1.319.552 2.735.979 4.215 1.272zm-.28 6.47c.029 1.508.122 3.017.28 4.471-1.48.292-2.896.72-4.215 1.271-.589-1.748-.954-3.687-1.045-5.742h4.98zM6.17 23.139a17.24 17.24 0 0 0-2.456 1.44A14.882 14.882 0 0 1 1.051 17h3.984c.094 2.196.491 4.27 1.135 6.139zM4.313 25.38a16.126 16.126 0 0 1 2.207-1.305c1.004 2.485 2.449 4.548 4.186 5.943a15.05 15.05 0 0 1-6.393-4.638zm16.981 4.637c1.738-1.394 3.182-3.458 4.186-5.943.79.384 1.522.826 2.207 1.305a15.033 15.033 0 0 1-6.393 4.638zM27 16c0-2.567-.428-4.987-1.17-7.139.88-.422 1.698-.907 2.457-1.44A14.91 14.91 0 0 1 31 16h-4zm.688-9.38c-.685.479-1.417.921-2.207 1.305-1.004-2.485-2.449-4.549-4.186-5.943a15.062 15.062 0 0 1 6.393 4.638zM10.706 1.983C8.968 3.377 7.524 5.441 6.52 7.926A16.173 16.173 0 0 1 4.313 6.62a15.04 15.04 0 0 1 6.393-4.637zM3.714 7.421a17.185 17.185 0 0 0 2.456 1.44A21.954 21.954 0 0 0 5 16H1c0-3.19 1.009-6.145 2.714-8.579z"/></symbol><symbol id="icon-envelope" viewBox="0 0 38 32"><path d="M20.06.413c-.58-.533-1.539-.533-2.119 0L.253 11.084a.501.501 0 0 0-.242.428v18.922C.011 31.297.717 32 1.585 32h34.83c.868 0 1.574-.703 1.574-1.566V11.512a.501.501 0 0 0-.242-.428L20.06.413zm-1.556.827a.527.527 0 0 0 .095-.074.566.566 0 0 1 .801 0 .564.564 0 0 0 .095.074l17.227 10.394-12.478 7.436a.501.501 0 0 0 .511.86L37 12.64v17.757L20.065 19.131c-.538-.429-1.594-.429-2.096-.025L1 30.392V12.64l12.244 7.29a.5.5 0 0 0 .512-.86L1.277 11.634 18.504 1.24zM36.09 31H1.902l16.656-11.086c.173-.138.712-.137.919.025L36.09 31zM6.5 13h25a.5.5 0 0 0 0-1h-25a.5.5 0 0 0 0 1z"/></symbol><symbol id="icon-phone" viewBox="0 0 19 32"><path d="M1.5 32h16c.827 0 1.5-.673 1.5-1.5v-29c0-.827-.673-1.5-1.5-1.5h-16C.673 0 0 .673 0 1.5v29c0 .827.673 1.5 1.5 1.5zM1 1.5a.5.5 0 0 1 .5-.5h16a.5.5 0 0 1 .5.5v29a.5.5 0 0 1-.5.5h-16a.5.5 0 0 1-.5-.5v-29zM2.5 27h14a.5.5 0 0 0 .5-.5v-21a.5.5 0 0 0-.5-.5h-14a.5.5 0 0 0-.5.5v21a.5.5 0 0 0 .5.5zM3 6h13v20H3V6zm6 23a1 1 0 1 0 2 0 1 1 0 0 0-2 0zM7.5 4h4a.5.5 0 0 0 0-1h-4a.5.5 0 0 0 0 1z"/></symbol></defs></svg>